<?xml version="1.0" encoding="utf-8"?>
<!-- Generator: Adobe Illustrator 25.1.0, SVG Export Plug-In . SVG Version: 6.00 Build 0)  -->
<svg version="1.1" id="Layer_1" xmlns="http://www.w3.org/2000/svg" xmlns:xlink="http://www.w3.org/1999/xlink" x="0px" y="0px"
	 viewBox="0 0 612 792" style="enable-background:new 0 0 612 792;" xml:space="preserve">
<style type="text/css">
	.st0{fill:none;stroke:#000000;stroke-miterlimit:10;}
	.st1{fill:#FFFFFF;stroke:#000000;stroke-width:4;stroke-miterlimit:10;}
	.st2{fill:#92CEFF;stroke:#000000;stroke-width:2;stroke-miterlimit:10;}
	.st3{fill:#FFFFFF;stroke:#000000;stroke-miterlimit:10;}
	.st4{fill:#FBE48B;stroke:#000000;stroke-width:2;stroke-miterlimit:10;}
	.st5{fill:none;stroke:#000000;stroke-width:5;stroke-miterlimit:10;}
	.st6{fill:#99373E;stroke:#000000;stroke-width:2;stroke-miterlimit:10;}
	.st7{stroke:#000000;stroke-miterlimit:10;}
	.st8{fill:none;stroke:#000000;stroke-width:2;stroke-miterlimit:10;}
	.st9{fill:#5C3CFC;stroke:#000000;stroke-width:3;stroke-miterlimit:10;}
	.st10{fill:none;stroke:#000000;stroke-width:3;stroke-miterlimit:10;}
	.st11{fill:none;stroke:#000000;stroke-width:4;stroke-miterlimit:10;}
	.st12{fill:#FADF7F;stroke:#000000;stroke-width:3;stroke-miterlimit:10;}
	.st13{fill:#FFFFFF;stroke:#000000;stroke-width:3;stroke-miterlimit:10;}
	.st14{fill:#92CEFF;stroke:#000000;stroke-width:0.75;stroke-miterlimit:10;}
	.st15{fill:#5C3CFC;stroke:#000000;stroke-width:2;stroke-miterlimit:10;}
	.st16{fill:#FADF7F;stroke:#000000;stroke-width:2;stroke-miterlimit:10;}
	.st17{fill:#FFFFFF;stroke:#000000;stroke-width:2;stroke-miterlimit:10;}
	.st18{fill:#5C3CFC;stroke:#000000;stroke-width:0.75;stroke-miterlimit:10;}
	.st19{fill:#99373E;stroke:#000000;stroke-width:0.75;stroke-miterlimit:10;}
	.st20{fill:#FBE48B;stroke:#000000;stroke-width:3;stroke-miterlimit:10;}
	.st21{fill:#40407A;stroke:#000000;stroke-width:4;stroke-miterlimit:10;}
	.st22{fill:#FADF7F;stroke:#000000;stroke-width:4;stroke-miterlimit:10;}
	.st23{fill:#5C3CFC;stroke:#000000;stroke-width:4;stroke-miterlimit:10;}
</style>
<path class="st0" d="M251.36,276.78"/>
<path class="st1" d="M289.56,286.63h-37.3l-0.24-9.91C256.94,276.28,287.94,274.05,289.56,286.63z"/>
<path class="st1" d="M313.47,287.11l39.77,0.16l0.22-10.09C348.13,276.71,315.28,274.38,313.47,287.11z"/>
<path class="st2" d="M452,406.34l-1.17,1.38h-0.01l-0.45,0.53l-13.52-3.76l-6.12-1.69l-0.02-0.01l-12.49-3.47l-11.14-2.34
	l-5.79-6.54l-0.11-0.12l-25.08-28.34l-0.62-1.03c0-0.01-0.01-0.02-0.02-0.03l-22.13-37.05l0.18-16.65v-0.04l0.51-47.5l0.74,1.95
	v0.01c1.12,9.95,3.52,27.19,7.79,39.64c5.48,15.98,14.04,30.52,14.19,30.85c7.47,15.92,21.92,34.16,35.83,45L452,406.34z"/>
<polygon class="st3" points="501.61,463.96 481.2,445.58 495.72,457.42 "/>
<polygon class="st3" points="380.54,503.89 381.4,507.54 378.68,503.89 "/>
<path class="st3" d="M564.57,561.83l-38.96-0.06h-3.08l-21.69-0.03l-79.22-0.12l-15.05-20.24l-2.69-3.61l-0.56-0.76l-9.42-12.66
	l8.46-6.31l1.52-1.14v-5.81l-18.4-18.79c-2.21,1.05-4.52,2.09-6.94,3.11c-0.7,0.29-1.4,0.59-2.1,0.88
	c-0.71,0.29-1.42,0.57-2.15,0.86c-0.16,0.06-0.32,0.13-0.48,0.19l-3.82-5.14l0.9-0.75l65.52-54.64l0.01-0.01l13.63-11.37l2.76-2.3
	c-3.56,8.79-9.74,20.85-20.12,33.21l1.12,1.02l23.81,20.21h20.06l15.4,0.26c5.26,1.98,7.33,8.31,4.26,13.02l-5.69,3.37l4.38-0.03
	c3.94,4.43,3.59,11.21-0.79,15.21l-4.88,0.89l0.19,0.35l4.8,1.6c2.38,2.78,2.89,6.54,1.61,9.73l21.85,38.67l44.79,0.23l-5.83-11.76
	L564.57,561.83z"/>
<path class="st4" d="M353.33,269.34l-16.53-0.25c-1.4-0.01-1.8-0.03-2.19-0.09c-3.99-0.64-9.73-3.53-12.54-6.08l-9.81-9.6
	c-0.11-0.11-0.18-0.24-0.22-0.38h5.21l7.65,5.51c2.3,1.81,8.37,3.31,11.39,3.31l17.07,0C353.36,261.76,353.33,268.72,353.33,269.34z
	"/>
<path class="st4" d="M293.76,254.24l-10.04,9.6c-2.88,2.55-8.75,5.44-12.83,6.08c-0.4,0.06-0.81,0.08-1.23,0.09l-16.91,0.25
	c-0.44,0.01-0.8-0.33-0.81-0.76l-0.28-7.74h15.77c2.8,0,8.44-1.5,10.58-3.31l7.12-5.53l8.26,0.01h0.01
	C293.98,253.07,294.22,253.8,293.76,254.24z"/>
<path class="st5" d="M289.56,286.63c0.06,0.47,0.08,0.96,0.06,1.47"/>
<path class="st5" d="M252.02,276.72c-0.02,0-0.04,0-0.05,0c-0.4,0.04-0.61,0.06-0.61,0.06"/>
<path class="st0" d="M317.7,288.1"/>
<path class="st0" d="M355.71,276.78"/>
<path class="st6" d="M453.08,422.46c3.95,3.25,21.36,17.53,26.61,21.87l-26.44-21.57l-0.44,0.37c-3.56,8.79-9.74,20.85-20.12,33.21
	l-1.01-0.92l18.37-29.99l2.22-3.63C452.27,421.8,452.56,422.04,453.08,422.46z"/>
<path class="st6" d="M496.96,521.97l-6.41-11.33l4.8,1.6C497.73,515.02,498.24,518.78,496.96,521.97z"/>
<path class="st6" d="M496.03,494.19c3.94,4.43,3.59,11.21-0.79,15.21l-4.88,0.89l-1.53-2.7l-4-3.65l-28.89-26.37l-22.13-20.21
	l23.81,20.21h20.06l15.4,0.26c5.26,1.98,7.33,8.31,4.26,13.02l-5.69,3.37L496.03,494.19z"/>
<path class="st6" d="M557.77,549.11l-29.91-56l-26.25-29.15l7.14,6.43c1.92,1.82,3.75,3.68,5.49,5.54c0.01,0.01,0.02,0.03,0.04,0.04
	c13.73,14.69,21.9,29.68,22.72,31.21c0.01,0.02,0.02,0.05,0.04,0.07c0.01,0.02,0.02,0.04,0.03,0.06L557.77,549.11z"/>
<path class="st5" d="M317.71,288.1c-0.02-0.51,0-1,0.05-1.47"/>
<path class="st7" d="M352.48,286.63l-1.65,14.75c-0.1,4.5-4.54,13.09-11.95,15.93c-6.75,2.59-16.4-0.32-18.48-1.22
	c-0.03-0.02-0.07-0.03-0.11-0.05c-5.39-2.38-9.25-7.29-10.62-13.02l-0.77-3.23c-0.87-3.62-4.01-6.38-7.73-6.44
	c-1.84-0.03-3.58,0.61-4.44,2.64c-7.1,16.63-11.91,20.63-19.68,22.49c-12.35,2.3-23.12-7.53-24.3-11.75l-0.01-0.02v-0.04
	c-0.12-0.42-0.13-0.78-0.03-1.07l-0.49-18.97H352.48z"/>
<path class="st8" d="M309.96,329.07l-4.27,2.23c-2.61,1.36-5.79,1.02-8.05-0.88l0,0c-2.92-2.45-3.6-6.68-1.59-9.92l1.03-1.67
	L296.72,296"/>
<path class="st8" d="M307.84,321.31l0.71,0.35c2.06,1.03,3.73,2.7,4.76,4.76l0,0"/>
<path class="st6" d="M319.9,351.79l-7.83,6.24c-0.97,0.77-2.17,1.19-3.41,1.19h-10.17c-0.8,0-1.6-0.21-2.29-0.62l-10.06-5.94
	c-0.63-0.37-0.93-1.03-0.87-1.67c0.03-0.56,0.32-1.11,0.88-1.43l8.16-4.78c1.62-0.94,3.66,0.22,3.66,2.1h7.05
	c0-1.62,1.33-2.82,2.81-2.82c0.36,0,0.73,0.07,1.09,0.22l10.55,4.41C320.74,349.22,320.98,350.93,319.9,351.79z"/>
<path class="st8" d="M252.22,262.66"/>
<path class="st4" d="M282.8,263.58"/>
<path class="st4" d="M293.82,252.64"/>
<path class="st9" d="M563.6,560.87l-44.79-0.23l-21.85-38.67c1.28-3.19,0.77-6.95-1.61-9.73l-4.8-1.6l-0.19-0.35l4.88-0.89
	c4.38-4,4.73-10.78,0.79-15.21l-4.38,0.03l5.69-3.37c3.07-4.71,1-11.04-4.26-13.02l-15.4-0.26h-20.06l-23.81-20.21l-1.12-1.02
	c10.38-12.36,16.56-24.42,20.12-33.21l0.44-0.37l26.44,21.57l0.47,0.39l0.83,0.68l0.18,0.15l0.03,0.03l20.41,18.38l26.25,29.15
	l29.91,56L563.6,560.87z"/>
<path class="st10" d="M421.62,561.62l79.22,0.12l21.69,0.03h0.01h3.07l38.96,0.06l-25.36-50.81c-0.7-1.24-1.41-2.48-2.14-3.71
	c-0.01-0.02-0.02-0.04-0.03-0.06c-0.02-0.02-0.03-0.05-0.04-0.07c-2.85-4.81-5.89-9.5-9.14-14.07c-4.2-5.93-8.74-11.65-13.58-17.14
	c-0.02-0.01-0.03-0.03-0.04-0.04c-5.75-6.51-11.94-12.69-18.52-18.51l-14.52-11.84"/>
<line class="st11" x1="103.89" y1="561.1" x2="102.03" y2="561.1"/>
<path class="st12" d="M345.01,561.49l-6.85-0.01l-17.84-20.41c-3.47-4.04-5.68-8.17-9.26-14.08l-7.92-16.61
	c4.2,0.03,8.32-0.09,12.35-0.33l-5.42,0.77l2.35,4.3l4.49,9.4l1.4,2.93c1.5,2.47,2.75,4.63,3.96,6.6c1.68,2.74,3.27,5.12,5.3,7.47
	l2.26,2.59l8.65,9.9L345.01,561.49z"/>
<path class="st13" d="M338.16,561.48l-129.42-0.21l-11.67-14.14c-1.89,2.13-5.08,2.49-7.39,0.84l-7.09-5.27v-56.33h-15.2v56.33
	c0,0-14.28,12.57-25.77,18.28l-0.54,0.18h-0.01l-17.36-0.03h-0.43l41.9-43.54v-12.11l-15.28-12.54c1.61-1.49,3.27-2.96,4.99-4.43
	l27.96-24.39c5.89,6.05,12.26,11.73,18.8,16.18c-0.47,0.45-0.86,0.99-1.14,1.6l-4.7,10.27l-1.91,2.7l1.22,0.47
	c3.52,4.36,4.36,9.73,0.69,13.97l-2.14,0.22l0.14,0.12c2.71,2.47,2.8,6.71,0.21,9.31c-0.44,0.44-0.65,1-0.65,1.55
	c0,0.85,0.49,1.69,1.37,2.05l3.01,1.24c2.46,1.74,2.77,5.26,0.65,7.4l-2.63-0.05c-1.74,1.77-1.66,4.63,0.19,6.29l9.48,8.5
	l51.26-1.63l2.45-0.23c2.71-4.28,2.67-9.75-0.11-13.99l-3.71-1.69l2.65-1.54c3.86-3.45,4.25-9.36,0.88-13.3l-5.55-1.85l5.44-0.98
	c1.59-1.46,2.65-3.28,3.16-5.22c14.3,3.33,28.11,4.79,41.22,4.87h0.01l7.92,16.61c3.58,5.91,5.79,10.04,9.26,14.08L338.16,561.48z"
	/>
<path class="st13" d="M208.74,561.27l-67.66-0.11l0.54-0.18c11.49-5.71,25.77-18.28,25.77-18.28h15.2l7.09,5.27
	c2.31,1.65,5.5,1.29,7.39-0.84L208.74,561.27z"/>
<path class="st11" d="M227.88,251.96"/>
<rect x="227.88" y="240.75" class="st4" width="148.81" height="11.89"/>
<path class="st14" d="M252.9,313.11l-12.52,46.11l-51.51,40.11l-19.17,4.64l-18.55,4.48l0.23-0.19l4.43-3.62l53.96-44.11
	c0.02-0.01,0.03-0.03,0.03-0.04c7.56-8.91,14.24-18.94,18.57-28.19c0.16-0.33,8.69-14.86,14.16-30.84
	c3.77-11.03,5.78-25.89,6.79-36.1l2.22-5.34v-0.01l0.06-0.13v-0.01l0.01-0.02l0.03,1.18l0.01,0.34l0.01,0.39l0.36,14.96l0.24,9.91
	l0.45,18.97l0.03,1.07v0.04l0.01,0.02L252.9,313.11z"/>
<path class="st15" d="M250.23,253.65c0,0-0.23,4.79-0.91,11.71l-39.52,95.13c0,0.01-0.01,0.03-0.03,0.04l-53.96,44.11l-5.09,3.78
	l-17.69-16.63l44.52-31.3c9.43-7.08,28.28-30.04,38.24-54.4c10.65-26.1,12.09-52.44,12.09-52.44L250.23,253.65L250.23,253.65z"/>
<path class="st6" d="M209.77,360.53c-5.44,6.41-11.34,12.24-17.14,16.77l-36.82,27.34L209.77,360.53z"/>
<path class="st15" d="M249.32,265.36c-1.01,10.21-3.02,25.07-6.79,36.1c-5.47,15.98-14,30.51-14.16,30.84
	c-4.33,9.25-11.01,19.28-18.57,28.19L249.32,265.36z"/>
<line class="st8" x1="436.3" y1="404.32" x2="430.06" y2="402.79"/>
<path class="st16" d="M361.49,375.44l-1.36,0.8c-33.13,37.77-75.62,49.6-116.69,1.78l24.34-4.94l0.66,0.56
	c8.45,7.1,18.34,12.29,28.99,15.2l3.84,1.05H306c10.62-2.44,24.03-7.51,32.18-14.74l0.78-3.07L361.49,375.44z"/>
<path class="st16" d="M361.49,375.44v7.53c-33.13,37.78-76.98,51.17-118.05,3.35v-8.3c41.07,47.82,83.56,35.99,116.69-1.78
	L361.49,375.44z"/>
<path class="st16" d="M376.37,389.63c-0.77,1.26-2.91,4.56-6.38,8.68c-2.57,3.03-5.86,6.51-9.89,9.94
	c-2.69,2.29-5.71,4.57-9.05,6.68c-3.38,2.13-7.1,4.09-11.15,5.72c-1.98,0.8-4.05,1.52-6.19,2.15c-1.72,0.5-3.4,0.96-5.03,1.38
	c-4.18,1.06-8.07,1.85-11.77,2.39c-4.97,0.75-9.57,1.07-13.99,1.04c-5.95-0.03-11.56-0.66-17.26-1.67
	c-3.5-0.63-7.03-1.39-10.69-2.24c-3.26-0.76-6.35-1.8-9.26-3.05c-3.76-1.61-7.22-3.57-10.38-5.71c-3.64-2.48-6.88-5.2-9.7-7.93
	c-3.5-3.36-6.35-6.73-8.53-9.62h-0.01c-3.57-4.72-5.36-8.17-5.26-8.3l0.01-0.01l11.6-2.76c41.07,47.82,84.92,34.43,118.05-3.35v3.01
	L376.37,389.63z"/>
<line class="st8" x1="376.94" y1="389.63" x2="376.91" y2="389.6"/>
<polygon class="st2" points="267.78,373.08 243.44,378.02 243.44,386.32 231.84,389.08 261.55,348.76 267,354.26 267,354.27 "/>
<path class="st15" d="M471.65,391.61l-17.73,16.64l-2.57-1.91l1.73-2.02l-9.89-7.34l-39.73-28.89l-18.33-22.79l-12.48-35.03
	l-18.54-48.63v-0.01c-0.54-4.83-0.78-7.93-0.78-7.93l23.33-0.09c0,0,1.36,26.21,12.05,52.3c9.97,24.37,28.87,47.32,38.32,54.4
	L471.65,391.61z"/>
<path class="st15" d="M453.08,404.32l-1.73,2.02l-39.43-29.21c-13.91-10.84-28.36-29.08-35.83-45c-0.15-0.33-8.71-14.87-14.19-30.85
	c-4.27-12.45-6.67-29.69-7.79-39.64l18.54,48.63l12.48,35.03l18.33,22.79l39.73,28.89L453.08,404.32z"/>
<path class="st17" d="M338.96,355.09v16.99l-0.78,3.07c-8.15,7.23-21.56,12.3-32.18,14.74h-4.73l-3.84-1.05
	c-10.65-2.91-20.54-8.1-28.99-15.2l-0.66-0.56L267,354.27l21.03,21.27c3.14,3.19,7.47,4.91,11.95,4.76l7.28-0.23
	c4.37-0.15,8.52-1.94,11.62-5.02L338.96,355.09z"/>
<path class="st2" d="M376.91,389.6c-0.08-0.07-0.36-0.27-0.54,0.03l-14.88-3.65v-10.54l-22.53-3.36v-17l5.3-5.26l13.56,19.2
	c1.9,2.7,4.03,5.23,6.37,7.57L376.91,389.6z"/>
<path class="st2" d="M377.02,389.42l-12.7-12.99c-2.34-2.34-4.46-4.86-6.36-7.56l-13.54-19.17l5.78-5.75
	c2.14-2.13,3.32-5.03,3.27-7.05l-0.16-9.99l20.36,32.18c0.39,0.59,0.81,1.15,1.25,1.7c0.01,0.01,0.02,0.02,0.02,0.03
	c0.24,0.29,0.48,0.57,0.72,0.84l24.94,28.49l0.11,0.12l5.71,6.52l-29.94-7.33C376.67,389.15,376.94,389.35,377.02,389.42z"/>
<path class="st17" d="M237.09,397.39l-56,25.37c-7.85-10.97-11.42-18.85-11.42-18.85l19.2-4.58l42.96-10.24
	C231.73,389.22,233.52,392.67,237.09,397.39z"/>
<path class="st17" d="M245.63,407.01l-50.67,32.65h-0.01c-5.6-5.98-10.19-11.78-13.86-16.9l56-25.37h0.01
	C239.28,400.28,242.13,403.65,245.63,407.01z"/>
<line class="st8" x1="255.34" y1="414.93" x2="255.33" y2="414.94"/>
<path class="st17" d="M255.33,414.94l-43.01,40.76c-6.62-5.27-12.39-10.73-17.36-16.04l50.67-32.65
	C248.45,409.74,251.69,412.46,255.33,414.94z"/>
<path class="st17" d="M265.71,420.65l-35.14,47.24c-6.44-3.59-12.55-7.65-18.25-12.19l43.01-40.76
	C258.49,417.08,261.95,419.04,265.71,420.65z"/>
<path class="st17" d="M274.97,423.7l-23.61,53.72c-7.19-2.66-14.16-5.84-20.79-9.53l35.14-47.24
	C268.62,421.9,271.71,422.94,274.97,423.7z"/>
<path class="st17" d="M285.66,425.94l-13.89,57.5c-6.94-1.55-13.77-3.56-20.41-6.02l23.61-53.72
	C278.63,424.55,282.16,425.31,285.66,425.94z"/>
<line class="st8" x1="271.77" y1="483.45" x2="271.77" y2="483.44"/>
<path class="st17" d="M302.98,487.36c-10.46-0.29-20.95-1.61-31.21-3.92l13.89-57.5c5.7,1.01,11.31,1.64,17.26,1.67L302.98,487.36z"
	/>
<line class="st8" x1="302.98" y1="487.37" x2="302.98" y2="487.36"/>
<path class="st17" d="M334.88,485.05c-10.39,1.87-21.12,2.64-31.9,2.31l-0.06-59.75c4.42,0.03,9.02-0.29,13.99-1.04L334.88,485.05z"
	/>
<line class="st8" x1="316.91" y1="426.57" x2="316.72" y2="425.94"/>
<path class="st17" d="M357.71,478.89c-7.32,2.7-14.98,4.74-22.83,6.16l-17.97-58.48c3.7-0.54,7.59-1.33,11.77-2.39L357.71,478.89z"
	/>
<path class="st17" d="M376.69,469.98c-5.99,3.51-12.34,6.47-18.98,8.91l-29.03-54.71c1.63-0.42,3.31-0.88,5.03-1.38
	c2.14-0.63,4.21-1.35,6.19-2.15L376.69,469.98z"/>
<line class="st8" x1="376.7" y1="469.99" x2="376.7" y2="469.98"/>
<path class="st17" d="M395.13,456.34c-5.6,5.22-11.79,9.76-18.43,13.64h-0.01l-36.79-49.33c4.05-1.63,7.77-3.59,11.15-5.72
	L395.13,456.34z"/>
<path class="st17" d="M410.89,439.85c-4.7,5.48-9.98,11.11-15.76,16.49l-44.08-41.41c3.34-2.11,6.36-4.39,9.05-6.68L410.89,439.85z"
	/>
<line class="st8" x1="410.9" y1="439.85" x2="410.89" y2="439.85"/>
<path class="st17" d="M425,421.8c-3.84,5.4-8.58,11.63-14.11,18.05l-50.79-31.6c4.03-3.43,7.32-6.91,9.89-9.94L425,421.8z"/>
<line class="st8" x1="369.99" y1="398.31" x2="369.98" y2="398.3"/>
<path class="st4" d="M293.82,252.64"/>
<path class="st2" d="M261.55,348.76l-29.71,40.32l-0.01,0.01l-42.96,10.24l26.79-23.22c10.13-9.27,24.08-26.79,29.16-40.26
	l8.08-22.74l0.48,18.69c0.15,5.73,2.48,11.19,6.5,15.27L261.55,348.76z"/>
<line class="st8" x1="285.26" y1="350.99" x2="319.52" y2="350.18"/>
<line class="st8" x1="86.55" y1="561.89" x2="86.5" y2="562.01"/>
<path class="st8" d="M85.59,561.83"/>
<path class="st15" d="M171.87,451.87l-29.18,25.89c-24.08,21.42-38.1,44.98-43.09,54.84c-0.06,0.13-0.12,0.26-0.18,0.4l-12.87,28.89
	l-42.71-0.06l23.58-50.8c10.44-19.98,24.1-38.09,40.43-53.62l42.87-34.65C150.72,422.76,159.26,436.72,171.87,451.87z"/>
<path class="st16" d="M182.85,464.12l-27.96,24.39c-1.72,1.47-3.38,2.94-4.99,4.43h-0.01l-0.12,0.12c-3.12,2.88-6.04,5.77-8.75,8.64
	l-0.33,0.33l0.01,0.01c-13.86,14.71-22.34,28.59-25.89,35.32c-0.06,0.12-0.12,0.23-0.17,0.35l-9.63,20.95l-0.05,0.11l-1.07,2.33
	l-0.38,0.82l-16.96-0.03L99.42,533c0.06-0.14,0.12-0.27,0.18-0.4c4.99-9.86,19.01-33.42,43.09-54.84l29.18-25.89
	C175.26,455.95,178.95,460.12,182.85,464.12z"/>
<path class="st8" d="M141.02,501.7c-0.11,0.11-0.21,0.23-0.32,0.34l-0.01-0.01L141.02,501.7z"/>
<path class="st8" d="M452.35,408.25c0,0-2.47,9.44-15.93,28.55l-0.01,0.01c-4.36,6.18-9.85,13.36-16.78,21.56
	c-11.77,13.93-28.8,25.23-48.74,33.08c-32.1,12.64-71.75,16.35-109.21,7.71c-4.17-0.96-8.31-2.08-12.41-3.35
	c-12.95-4.01-25.5-9.6-37.21-16.92c-2.29-1.42-4.55-2.91-6.77-4.47c-27.23-19.11-54.13-65.96-54.13-65.96"/>
<path class="st8" d="M514.44,537.22"/>
<path class="st8" d="M465.38,481.98"/>
<polygon class="st17" points="415.89,486.55 417.11,540.98 426.09,542.54 435.95,541.38 441.99,517.41 431.33,493.11 428.33,490.58 
	429.86,481.59 423.41,483.01 "/>
<line class="st8" x1="432.65" y1="456.38" x2="432.3" y2="456.09"/>
<path class="st8" d="M503.46,564.99"/>
<path class="st8" d="M491.82,540.06"/>
<path class="st16" d="M457.62,477.57h-15.93c-2.02,0-3.85,1.17-4.69,3l-14.15-13.76c0.01-0.01,0.01-0.01,0.02-0.02
	c3.62-3.45,6.86-6.94,9.78-10.41l1.16,0.98L457.62,477.57z"/>
<line class="st8" x1="422.85" y1="466.81" x2="422.49" y2="466.46"/>
<path class="st17" d="M152.64,512.36l-0.46,0.45l-47.22,45.96l0.05-0.11l10.46-22.36c0.05-0.12,0.11-0.22,0.17-0.34
	c3.47-6.46,11.77-19.8,25.32-33.93l0.1,0.08L152.64,512.36z"/>
<polygon class="st15" points="165.18,517.59 123.28,561.13 123.71,561.13 123.28,561.58 104.33,561.55 103.89,561.55 152.64,513.23 
	152.18,512.81 152.64,512.36 141.06,502.11 149.77,493.51 149.89,493.39 149.9,493.39 165.18,505.93 "/>
<path class="st6" d="M152.64,512.36l-0.46,0.45l-11.48-10.32c0.11-0.11,0.21-0.23,0.32-0.34l0.04-0.04L152.64,512.36z"/>
<polygon class="st6" points="165.18,517.59 165.18,518.04 123.71,561.13 123.28,561.13 "/>
<path class="st8" d="M141.02,501.7c-0.11,0.11-0.21,0.23-0.32,0.34l-0.01-0.01L141.02,501.7z"/>
<path class="st17" d="M490.36,510.29l-0.56,0.1l0.75,0.25l4.8,1.6c2.38,2.78,2.89,6.54,1.61,9.73c-0.52,1.33-1.36,2.56-2.49,3.57
	l-2.65,1.54l3.71,1.69c2.78,4.23,2.82,9.7,0.11,13.98l-2.45,0.24l-51.26,1.63l-5.54-4.97l-3.94-3.53c-1.85-1.66-1.93-4.53-0.19-6.29
	l2.63,0.05c2.12-2.14,1.81-5.67-0.65-7.41l-3.01-1.24c-1.46-0.6-1.84-2.48-0.72-3.6c1.26-1.26,1.88-2.91,1.88-4.55
	c0-1.74-0.7-3.48-2.09-4.76l-0.13-0.11l2.13-0.22c1.96-2.27,2.63-4.86,2.29-7.44v-0.01c-0.27-2.12-1.23-4.24-2.7-6.16l-0.01-0.01
	c-0.08-0.12-0.18-0.24-0.27-0.36l-1.22-0.46l0.55-0.77l1.36-1.93l4.7-10.28c0.84-1.83,2.67-3,4.69-3h35.99l15.4,0.26
	c5.26,1.98,7.33,8.31,4.26,13.02l-5.69,3.37l4.38-0.03c3.94,4.43,3.59,11.21-0.79,15.21L490.36,510.29z"/>
<path class="st8" d="M475.68,477.57l6.48,3.05c2.8,2.05,4.35,5.4,4.11,8.86l-1.42,14.33c-0.13,1.35-1.6,2.12-2.78,1.47l-7.66-4.19
	c-2.5-1.36-4.05-3.98-4.05-6.83l0,0c0-1.83-1.69-3.2-3.48-2.82l-3.66,0.78c-2.44,0.52-4.18,2.67-4.18,5.16v3.35
	c0,3.07-1.24,6.01-3.43,8.16l-8.12,7.96"/>
<path class="st8" d="M461.47,542.84l-1.62-0.09c-1.81-3.77-1.68-8.19,0.36-11.85l0,0c3.43-4.46,1.06-4.81-1.25-8.15
	c-2.85-4.47-0.68-5.82,1.82-9.4l0,0c2.03-2.09,2.24-3.68,0.92-5.53l-3.13-3.93"/>
<line class="st8" x1="489.8" y1="510.39" x2="462.52" y2="510.39"/>
<line class="st8" x1="491.82" y1="527.08" x2="462.52" y2="527.57"/>
<rect x="403.88" y="485.05" class="st16" width="15.2" height="56.33"/>
<path class="st8" d="M419.08,485.05l9.25-4.35c1.06-0.5,2.28,0.27,2.28,1.45l-1.34,12.13"/>
<line class="st8" x1="426.89" y1="539.01" x2="419.08" y2="532.77"/>
<path class="st18" d="M382.63,512.76l-71.12,0.45l-1.44-2.39l5.42-0.77c11.25-0.66,21.86-2.28,31.66-4.53
	c0.08-0.02,0.17-0.04,0.25-0.06c2.15-0.49,4.26-1.02,6.33-1.57h24.95l2.72,3.65L382.63,512.76z"/>
<path class="st19" d="M347.15,505.52c-9.8,2.25-20.41,3.87-31.66,4.53l22.51-3.21L347.15,505.52z"/>
<path class="st19" d="M353.73,503.89c-2.07,0.55-4.18,1.08-6.33,1.57L353.73,503.89z"/>
<polygon class="st19" points="381.4,507.54 378.68,503.89 380.54,503.89 "/>
<line class="st8" x1="427.74" y1="527.32" x2="419.08" y2="520.73"/>
<line class="st8" x1="426.89" y1="512.76" x2="419.08" y2="512.76"/>
<line class="st8" x1="425.53" y1="499" x2="419.08" y2="506.15"/>
<line class="st8" x1="425.53" y1="488.05" x2="419.08" y2="493.11"/>
<path class="st20" d="M392.66,522.69l-11.26-15.15l-0.86-3.65l-2-8.48c2.42-1.02,4.73-2.06,6.94-3.11l7.12,30.15
	C392.62,522.53,392.64,522.61,392.66,522.69z"/>
<path class="st20" d="M421.62,561.62l-9.68-0.02l-8-9.08l-8.81-9.98l-2.91-3.3c-1.48-2.04-2.77-4.21-3.86-6.47
	c-1.22-2.54-2.19-5.21-2.88-7.96l-2.85-12.05l-1.23-5.22l11.26,15.15l0.01,0.01c0.18,0.71,0.39,1.41,0.61,2.11
	c1.13,3.57,2.75,6.96,4.79,10.11l0.02,0.03l0.01,0.01c0.45,0.7,0.93,1.39,1.43,2.07L421.62,561.62z"/>
<path class="st15" d="M378.68,503.89h-24.95c1.14-0.3,2.27-0.61,3.38-0.93s2.21-0.64,3.3-0.98c1.18-0.36,2.34-0.73,3.49-1.1
	c0.97-0.32,1.94-0.64,2.88-0.96c1.3-0.45,2.57-0.9,3.82-1.37c0.55-0.2,1.08-0.4,1.62-0.6c0.53-0.2,1.06-0.41,1.59-0.61
	L378.68,503.89z"/>
<path class="st15" d="M380.54,503.89h-1.86l-4.87-6.55c0.16-0.06,0.32-0.13,0.48-0.19c0.73-0.29,1.44-0.57,2.15-0.86
	c0.7-0.29,1.4-0.59,2.1-0.88L380.54,503.89z"/>
<polygon class="st15" points="385.48,524.81 316.91,524.52 312.42,515.12 311.51,513.21 382.63,512.76 "/>
<path class="st15" d="M388.36,532.77l-66.09,1.28c-1.21-1.97-2.46-4.13-3.96-6.6l-1.4-2.93l68.57,0.29
	C386.17,527.56,387.14,530.23,388.36,532.77z"/>
<path class="st15" d="M395.13,542.54l-65.3,1.57l-2.26-2.59c-2.03-2.35-3.62-4.73-5.3-7.47l66.09-1.28
	c1.09,2.26,2.38,4.43,3.86,6.47L395.13,542.54z"/>
<polygon class="st15" points="403.94,552.52 338.48,554.01 329.83,544.11 395.13,542.54 "/>
<polygon class="st9" points="411.94,561.6 345.01,561.49 338.48,554.01 403.94,552.52 "/>
<line class="st8" x1="378.54" y1="495.41" x2="378.36" y2="494.67"/>
<line class="st8" x1="345.72" y1="562.3" x2="345.01" y2="561.49"/>
<line class="st8" x1="338.48" y1="561.85" x2="338.16" y2="561.48"/>
<line class="st8" x1="303.13" y1="510.38" x2="302.92" y2="509.93"/>
<path class="st17" d="M259.04,530.09c2.78,4.24,2.82,9.71,0.11,13.99l-2.45,0.23l-51.26,1.63l-9.48-8.5
	c-1.85-1.66-1.93-4.52-0.19-6.29l2.63,0.05c2.12-2.14,1.81-5.66-0.65-7.4l-3.01-1.24c-0.88-0.36-1.37-1.2-1.37-2.05
	c0-0.55,0.21-1.11,0.65-1.55c2.59-2.6,2.5-6.84-0.21-9.31l-0.14-0.12l2.14-0.22c3.67-4.24,2.83-9.61-0.69-13.97l-1.22-0.47l1.91-2.7
	l4.7-10.27c0.28-0.61,0.67-1.15,1.14-1.6c1.52,1.03,3.04,2,4.57,2.89c6.82,3.96,13.6,7.41,20.32,10.41c2.48,1.1,4.94,2.14,7.4,3.12
	c0.35,2.4,1.8,4.51,3.97,5.7l7.66,4.19c1.19,0.65,2.65-0.13,2.78-1.47l0.32-3.21c4.45,1.38,8.87,2.57,13.24,3.58
	c-0.51,1.94-1.57,3.76-3.16,5.22l-5.44,0.98l5.55,1.85c3.37,3.94,2.98,9.85-0.88,13.3l-2.65,1.54L259.04,530.09z"/>
<path class="st8" d="M239.19,478.89l17.08,0.26l0.01,0.01h0.02h0.29c0.29,0.11,0.56,0.23,0.83,0.36h0.01
	c4.63,2.3,6.32,8.21,3.42,12.65l-5.69,3.37l4.38-0.02c0.98,1.09,1.69,2.34,2.14,3.64c0.71,2.06,0.79,4.27,0.23,6.35"/>
<path class="st8" d="M201.65,480.3c0.94-0.89,2.2-1.41,3.55-1.41"/>
<path class="st8" d="M224.98,544.17l-1.62-0.09c-1.81-3.77-1.68-8.19,0.36-11.85l0,0c3.43-4.46,1.06-4.81-1.25-8.15
	c-2.85-4.47-0.68-5.82,1.82-9.4l0,0c2.03-2.09,2.24-3.68,0.92-5.53l-3.13-3.93"/>
<line class="st8" x1="253.31" y1="511.71" x2="226.03" y2="511.71"/>
<line class="st8" x1="255.33" y1="528.4" x2="226.03" y2="528.89"/>
<rect x="167.39" y="486.37" class="st16" width="15.2" height="56.33"/>
<path class="st8" d="M182.59,486.37l9.25-4.35c1.06-0.5,2.28,0.27,2.28,1.45l-1.34,12.13"/>
<line class="st8" x1="199.9" y1="541.88" x2="197.07" y2="547.13"/>
<line class="st8" x1="190.4" y1="540.34" x2="182.59" y2="534.09"/>
<line class="st8" x1="191.25" y1="528.65" x2="182.59" y2="522.05"/>
<line class="st8" x1="190.4" y1="514.09" x2="182.59" y2="514.09"/>
<line class="st8" x1="189.04" y1="500.33" x2="182.59" y2="507.48"/>
<line class="st8" x1="189.04" y1="489.38" x2="182.59" y2="494.44"/>
<path class="st8" d="M240.89,478.89"/>
<path class="st8" d="M204.89,478.89"/>
<path class="st8" d="M240.52,478.74"/>
<polygon class="st3" points="403.91,519.19 403.88,520.09 403.32,537.01 403.27,538.44 402.36,539.01 398.1,534.96 398.09,534.95 
	398.07,534.92 393.28,524.81 393.9,524.35 402.36,518.04 403.88,519.17 "/>
<path class="st8" d="M210.99,518.19l8.12-7.96c1.42-1.4,2.44-3.12,2.98-5.01c0.3-1.02,0.45-2.08,0.45-3.16v-3.35
	c0-2.43,1.65-4.53,4-5.11c0.06-0.02,0.12-0.04,0.18-0.05l3.66-0.78c0.2-0.04,0.4-0.06,0.6-0.06c1.55,0,2.88,1.26,2.88,2.88
	c0,0.38,0.03,0.76,0.08,1.13"/>
<path class="st8" d="M248.67,501.93l0.6-6.12l0.5-5c0.25-3.47-1.3-6.81-4.1-8.87l-6.48-3.05h-27.11h-6.88h-0.31"/>
<path class="st17" d="M436.2,404.49c-0.63,1.13-4.57,7.98-11.2,17.31l-55.01-23.49c3.47-4.12,5.61-7.42,6.38-8.68l29.99,7.34v0.01
	l1.69,0.41l22.01,5.4L436.2,404.49z"/>
<path class="st16" d="M457.17,409.43c0,0-0.95,5.1-4.09,13.03c-0.09,0.22-0.18,0.44-0.27,0.67c-3.56,8.79-9.74,20.85-20.12,33.21
	c-0.01,0.01-0.02,0.02-0.03,0.03l-0.01,0.01c-2.92,3.47-6.16,6.96-9.78,10.41c-0.01,0.01-0.01,0.01-0.02,0.02
	c-6.9,6.59-15.14,13.03-24.95,18.87c-3.89,2.31-8.02,4.53-12.42,6.62c-2.21,1.05-4.52,2.09-6.94,3.11c-0.7,0.29-1.4,0.59-2.1,0.88
	c-0.71,0.29-1.42,0.57-2.15,0.86c-0.16,0.06-0.32,0.13-0.48,0.19c-0.53,0.2-1.06,0.41-1.59,0.61c-0.54,0.2-1.07,0.4-1.62,0.6
	c-1.25,0.47-2.52,0.92-3.82,1.37c-0.94,0.32-1.91,0.64-2.88,0.96c-1.15,0.37-2.31,0.74-3.49,1.1c-1.09,0.33-2.19,0.66-3.3,0.98
	s-2.24,0.63-3.38,0.93c-2.07,0.55-4.18,1.08-6.33,1.57c-0.08,0.02-0.17,0.04-0.25,0.06c-9.8,2.25-20.41,3.87-31.66,4.53
	c-4.03,0.24-8.15,0.36-12.35,0.33h-0.01c-13.11-0.08-26.92-1.54-41.22-4.87c-4.37-1.01-8.79-2.2-13.24-3.58
	c-4.87-1.5-9.78-3.23-14.73-5.21c-2.46-0.98-4.92-2.02-7.4-3.12c-6.72-3-13.5-6.45-20.32-10.41c-1.53-0.89-3.05-1.86-4.57-2.89
	c-6.54-4.45-12.91-10.13-18.8-16.18c-3.9-4-7.59-8.17-10.98-12.25c-12.61-15.15-21.15-29.11-21.15-29.11v-14.34l0.66-0.16
	l18.29-4.35c0,0,0.01,0.02,0.03,0.06c0,0.01,0.01,0.02,0.01,0.03c0.03,0.05,0.06,0.12,0.11,0.22c0.02,0.06,0.05,0.12,0.09,0.19
	c0.04,0.08,0.08,0.16,0.12,0.25c0.09,0.18,0.2,0.4,0.32,0.65c0.12,0.22,0.25,0.48,0.39,0.76c0.22,0.42,0.47,0.89,0.75,1.42
	c0.71,1.33,1.65,2.99,2.81,4.93c0.14,0.24,0.29,0.49,0.44,0.74c0.16,0.25,0.31,0.51,0.47,0.76c0.16,0.26,0.32,0.53,0.49,0.79
	c0.33,0.54,0.68,1.08,1.04,1.65c0.32,0.49,0.64,0.99,0.98,1.5c1.02,1.55,2.14,3.19,3.37,4.9c3.67,5.12,8.26,10.92,13.86,16.9h0.01
	c4.97,5.31,10.74,10.77,17.36,16.04c5.7,4.54,11.81,8.6,18.25,12.19c6.63,3.69,13.6,6.87,20.79,9.53c0.83,0.31,1.66,0.61,2.5,0.9
	c0.81,0.29,1.6,0.57,2.41,0.83l0.01,0.01h0.03c0.37,0.12,0.73,0.24,1.1,0.36h0.02c0.49,0.16,0.99,0.32,1.48,0.48
	c0.55,0.16,1.1,0.33,1.65,0.5c0.42,0.13,0.85,0.26,1.28,0.38c0.67,0.2,1.35,0.39,2.03,0.58c0.9,0.25,1.81,0.5,2.72,0.73
	c0.68,0.18,1.36,0.35,2.05,0.52c0.44,0.1,0.88,0.21,1.32,0.31c0.6,0.15,1.2,0.28,1.81,0.42c10.26,2.31,20.75,3.63,31.21,3.92
	c10.78,0.33,21.51-0.44,31.9-2.31c7.85-1.42,15.51-3.46,22.83-6.16c6.64-2.44,12.99-5.4,18.98-8.91h0.01
	c6.64-3.88,12.83-8.42,18.43-13.64c5.78-5.38,11.06-11.01,15.76-16.49c5.53-6.42,10.27-12.65,14.11-18.05
	c6.63-9.33,10.57-16.18,11.2-17.31c0.05-0.08,0.08-0.14,0.09-0.16c0.01-0.01,0.01-0.01,0.01-0.01l13.87,3.4h0.01l0.53,0.13l1.64,0.4
	L457.17,409.43z"/>
<line class="st8" x1="141.07" y1="561.16" x2="138.54" y2="562.01"/>
<path class="st15" d="M403.88,511.09v5.81l-1.52,1.14l-8.46,6.31l-1.23-1.65l-0.01-0.01c-0.02-0.08-0.04-0.16-0.06-0.24l-7.12-30.15
	L403.88,511.09z"/>
<path class="st6" d="M393.9,524.35l-0.62,0.46c-0.22-0.7-0.43-1.4-0.61-2.11L393.9,524.35z"/>
<polyline class="st8" points="403.88,511.09 403.94,516.86 403.88,516.9 "/>
<path class="st17" d="M403.88,490.53v20.56l-18.4-18.79c4.4-2.09,8.53-4.31,12.42-6.62L403.88,490.53z"/>
<line class="st8" x1="403.94" y1="490.58" x2="403.88" y2="490.53"/>
<line class="st8" x1="259.15" y1="544.08" x2="273.23" y2="560.98"/>
<line class="st8" x1="259.04" y1="530.09" x2="285.66" y2="560.98"/>
<line class="st8" x1="182.59" y1="542.7" x2="197.9" y2="560.25"/>
<path class="st6" d="M323.73,511.8"/>
<path class="st21" d="M270.49,217.38l-0.88,0.96l-9.54,10.23c-0.39,0.41-0.76,0.84-1.1,1.28l-0.04,0.05
	c-0.02,0.02-0.04,0.04-0.06,0.07c-0.34,0.39-1.38,1.76-1.57,2.06l-0.21,0.54l-2,5.24c-0.48,1.02-0.62,1.48-0.64,2.48l-21.8-0.09
	h-0.08l-2.96-0.01c-1.33,0,3.44-3.91,3.44-3.91c0.97-1.55,1.57-3.25,1.81-4.97l24.18-24.48h1.51L270.49,217.38z"/>
<path class="st21" d="M234.86,231.31c0.51-3.61-0.53-7.36-3.03-10.23l-15.48-14.25h42.69L234.86,231.31z"/>
<polygon class="st21" points="298.92,206.83 290.35,215.77 280.33,206.83 "/>
<polygon class="st21" points="322.92,206.83 314.1,216.08 305.43,206.83 "/>
<path class="st11" d="M257.3,232.03l-0.21,0.54c0.53-0.9,1.13-1.78,1.78-2.6C258.53,230.36,257.49,231.73,257.3,232.03z
	 M260.07,228.57c-0.39,0.41-0.76,0.84-1.1,1.28l10.64-11.51L260.07,228.57z M333.77,218.13l-0.53,0.56l9.18,8.45L333.77,218.13z
	 M259.81,206.05l-0.77,0.78h1.51L259.81,206.05z M302.21,203.39l-3.29,3.44h6.51L302.21,203.39z M302.21,232.5l-5.76,6.24h12.3
	L302.21,232.5z"/>
<polygon class="st1" points="399.13,197.94 391.21,206.83 305.43,206.83 302.21,203.39 298.92,206.83 260.55,206.83 259.81,206.05 
	259.04,206.83 216.35,206.83 205.28,196.64 "/>
<path class="st22" d="M323.2,237.07v1.67h-6.19c0-1.61-0.63-3.15-1.74-4.3l-12.92-13.38l-14.07,14.28c-0.47,0.48-0.8,1.08-0.96,1.73
	l-0.39,1.67h-7.07l0.25-1.67c0.2-1.37,0.82-2.65,1.77-3.65l19.73-20.84l20.3,21.28C322.74,234.72,323.2,235.87,323.2,237.07z"/>
<polygon class="st21" points="333.77,218.13 333.24,218.69 324.47,227.14 314.1,216.08 322.92,206.83 "/>
<path class="st21" d="M373.18,240.74l-23.8-0.09l-0.32-3.66c-0.19-2.1-1.09-4.07-2.55-5.59l-4.09-4.26l-8.65-9.01l10.62-11.3
	l28.21,28.07l0.62,0.62l1.53,2.3C376.42,239.01,375.67,240.67,373.18,240.74z"/>
<polygon class="st21" points="280.33,206.83 270.49,217.38 260.55,206.83 "/>
<path class="st23" d="M323.2,238.74v-1.67c0-1.2-0.46-2.35-1.29-3.21l-20.3-21.28l-19.73,20.84c-0.95,1-1.57,2.28-1.77,3.65
	l-0.25,1.67h-6.96l1.14-3.85c0.58-1.98,1.64-3.8,3.07-5.29l13.24-13.83l8.57-8.94h6.51l8.67,9.25l10.37,11.06l2.9,3.09
	c1.64,1.75,2.9,3.82,3.7,6.08l0.86,2.43H323.2z"/>
<path class="st21" d="M349.38,240.65l-94.93-0.36c0.02-1,0.16-1.46,0.64-2.48l2-5.24c0.53-0.9,1.13-1.78,1.78-2.6
	c0.02-0.03,0.04-0.05,0.06-0.07l0.04-0.05l10.64-11.51l0.88-0.96l9.84-10.55l10.02,8.94l-13.24,13.83
	c-1.43,1.49-2.49,3.31-3.07,5.29l-1.14,3.85h59.03l-0.86-2.43c-0.8-2.26-2.06-4.33-3.7-6.08l-2.9-3.09l8.77-8.45l9.18,8.45
	l4.09,4.26c1.46,1.52,2.36,3.49,2.55,5.59L349.38,240.65z"/>
<path class="st21" d="M391.14,207.14l-9.85,11.47c-0.9,1.01-7.29,9.64-8.04,10.53c-0.57,0.68-0.88,4.9-0.65,5.76l-0.31-1.02
	l-25.61-26.74H391.14z"/>
<polygon class="st21" points="344.39,206.83 333.77,218.13 322.92,206.83 "/>
<path class="st15" d="M317.01,238.74h-8.26l-6.54-6.24l-5.76,6.24h-9.52l0.39-1.67c0.16-0.65,0.49-1.25,0.96-1.73l14.07-14.28
	l12.92,13.38C316.38,235.59,317.01,237.13,317.01,238.74z"/>
<polygon class="st4" points="308.75,238.74 296.45,238.74 302.21,232.5 "/>
<path class="st8" d="M232.65,240.2l21.79,0.45c0-0.13,0-0.25,0.01-0.36"/>
<path class="st8" d="M324.47,227.14"/>
<path class="st4" d="M285.13,252.92l-7.12,5.53c-2.14,1.81-7.78,3.31-10.58,3.31h-15.77l-0.01-0.39l-0.05-1.49l-0.24-6.98
	L285.13,252.92z"/>
<path class="st4" d="M353.12,252.9l-0.32,8.86h-17c-3.02,0-9.09-1.5-11.39-3.31l-7.65-5.51l-0.03-0.02L353.12,252.9z"/>
<path class="st8" d="M353.08,329.28"/>
<path class="st8" d="M352.77,262.87"/>
</svg>
